<mxfile host="app.diagrams.net" modified="2023-08-23T23:51:25.805Z" agent="Mozilla/5.0 (Windows NT 10.0; Win64; x64) AppleWebKit/537.36 (KHTML, like Gecko) Chrome/116.0.0.0 Safari/537.36" version="21.6.9" etag="zhrS2isQQrl2l-thnzS2" type="github">
  <diagram name="PÃ¡gina-1" id="EhsMH8d6bTJKeQ2cqIKL">
    <mxGraphModel>
      <root>
        <mxCell id="0" />
        <mxCell id="1" parent="0" />
      </root>
    </mxGraphModel>
  </diagram>
</mxfile>
